<svg width="52" height="11" viewBox="0 0 52 11" fill="none" xmlns="http://www.w3.org/2000/svg">
<path d="M3.87306 10.819C4.61973 10.819 5.2544 10.651 5.77706 10.315C6.29973 9.97904 6.69873 9.51004 6.97406 8.90804C7.25406 8.30604 7.39406 7.60837 7.39406 6.81504C7.39406 6.03571 7.2564 5.34737 6.98106 4.75004C6.7104 4.15271 6.3114 3.68604 5.78406 3.35004C5.2614 3.00937 4.6244 2.83904 3.87306 2.83904C3.1404 2.83904 2.5104 3.00704 1.98306 3.34304C1.45573 3.67437 1.05206 4.13871 0.772063 4.73604C0.492063 5.32871 0.352063 6.02171 0.352063 6.81504C0.352063 7.59904 0.489729 8.29204 0.765063 8.89404C1.0404 9.49604 1.4394 9.96737 1.96206 10.308C2.4894 10.6487 3.1264 10.819 3.87306 10.819ZM3.87306 10.035C3.0004 10.035 2.33773 9.74104 1.88506 9.15304C1.43706 8.56504 1.21306 7.78571 1.21306 6.81504C1.21306 6.18971 1.30873 5.63671 1.50006 5.15604C1.6914 4.67537 1.98306 4.29971 2.37506 4.02904C2.77173 3.75837 3.27106 3.62304 3.87306 3.62304C4.75973 3.62304 5.42473 3.91237 5.86806 4.49104C6.3114 5.06971 6.53306 5.84437 6.53306 6.81504C6.53306 7.77171 6.3114 8.54871 5.86806 9.14604C5.4294 9.73871 4.7644 10.035 3.87306 10.035ZM10.8498 10.609H11.6548V3.81904H14.3918V3.04904H8.11277V3.81904H10.8498V10.609ZM21.1642 10.812C21.7802 10.812 22.3238 10.6767 22.7952 10.406C23.2665 10.1354 23.6352 9.75504 23.9012 9.26504C24.1718 8.77504 24.3072 8.20571 24.3072 7.55704C24.3072 6.89437 24.1672 6.31571 23.8872 5.82104C23.6072 5.32637 23.2198 4.95071 22.7252 4.69404C22.2352 4.43271 21.6705 4.32304 21.0312 4.36504L24.2092 1.32704V0.529039H18.5042V1.32004H23.1102L19.4842 4.75004L19.9182 5.39404C20.1002 5.30537 20.2985 5.23537 20.5132 5.18404C20.7325 5.12804 20.9378 5.10004 21.1292 5.10004C21.8338 5.10004 22.3985 5.32171 22.8232 5.76504C23.2478 6.20837 23.4602 6.80571 23.4602 7.55704C23.4602 8.29437 23.2595 8.88704 22.8582 9.33504C22.4568 9.77837 21.8898 10.0094 21.1572 10.028C20.6345 10.0374 20.1678 9.90904 19.7572 9.64304C19.3465 9.37237 19.0478 8.96871 18.8612 8.43204L18.0982 8.67704C18.3082 9.34437 18.6862 9.86704 19.2322 10.245C19.7782 10.623 20.4222 10.812 21.1642 10.812ZM29.4724 0.319039C28.8517 0.319039 28.2847 0.470706 27.7714 0.774039C27.2627 1.07737 26.8544 1.48337 26.5464 1.99204C26.2431 2.50071 26.0914 3.06537 26.0914 3.68604C26.0914 4.30671 26.2407 4.86904 26.5394 5.37304C26.8381 5.87704 27.2371 6.28071 27.7364 6.58404C28.2404 6.88271 28.8027 7.03204 29.4234 7.03204C29.9601 7.03204 30.4547 6.91071 30.9074 6.66804C31.3601 6.42071 31.7404 6.09404 32.0484 5.68804V7.42404C32.0484 7.88604 31.9341 8.31537 31.7054 8.71204C31.4814 9.10404 31.1711 9.42137 30.7744 9.66404C30.3824 9.90671 29.9367 10.028 29.4374 10.028C28.9707 10.028 28.5437 9.91604 28.1564 9.69204C27.7691 9.46337 27.4611 9.16237 27.2324 8.78904L26.5884 9.25804C26.8871 9.73404 27.2861 10.1144 27.7854 10.399C28.2894 10.679 28.8401 10.819 29.4374 10.819C30.0814 10.819 30.6601 10.6674 31.1734 10.364C31.6914 10.056 32.1021 9.64304 32.4054 9.12504C32.7087 8.60704 32.8604 8.02371 32.8604 7.37504V3.73504C32.8604 3.10037 32.7087 2.52637 32.4054 2.01304C32.1021 1.49504 31.6937 1.08437 31.1804 0.781039C30.6671 0.473039 30.0977 0.319039 29.4724 0.319039ZM29.4724 1.11004C29.9484 1.11004 30.3801 1.22671 30.7674 1.46004C31.1594 1.68871 31.4697 1.99904 31.6984 2.39104C31.9317 2.77837 32.0484 3.21004 32.0484 3.68604C32.0484 4.16204 31.9317 4.59371 31.6984 4.98104C31.4697 5.36837 31.1594 5.67871 30.7674 5.91204C30.3801 6.14071 29.9484 6.25504 29.4724 6.25504C28.9964 6.25504 28.5647 6.14071 28.1774 5.91204C27.7901 5.67871 27.4797 5.36837 27.2464 4.98104C27.0177 4.59371 26.9034 4.16204 26.9034 3.68604C26.9034 3.21004 27.0177 2.77837 27.2464 2.39104C27.4797 1.99904 27.7901 1.68871 28.1774 1.46004C28.5647 1.22671 28.9964 1.11004 29.4724 1.11004ZM38.154 0.319039C37.5334 0.319039 36.9664 0.470706 36.453 0.774039C35.9444 1.07737 35.536 1.48337 35.228 1.99204C34.9247 2.50071 34.773 3.06537 34.773 3.68604C34.773 4.30671 34.9224 4.86904 35.221 5.37304C35.5197 5.87704 35.9187 6.28071 36.418 6.58404C36.922 6.88271 37.4844 7.03204 38.105 7.03204C38.6417 7.03204 39.1364 6.91071 39.589 6.66804C40.0417 6.42071 40.422 6.09404 40.73 5.68804V7.42404C40.73 7.88604 40.6157 8.31537 40.387 8.71204C40.163 9.10404 39.8527 9.42137 39.456 9.66404C39.064 9.90671 38.6184 10.028 38.119 10.028C37.6524 10.028 37.2254 9.91604 36.838 9.69204C36.4507 9.46337 36.1427 9.16237 35.914 8.78904L35.27 9.25804C35.5687 9.73404 35.9677 10.1144 36.467 10.399C36.971 10.679 37.5217 10.819 38.119 10.819C38.763 10.819 39.3417 10.6674 39.855 10.364C40.373 10.056 40.7837 9.64304 41.087 9.12504C41.3904 8.60704 41.542 8.02371 41.542 7.37504V3.73504C41.542 3.10037 41.3904 2.52637 41.087 2.01304C40.7837 1.49504 40.3754 1.08437 39.862 0.781039C39.3487 0.473039 38.7794 0.319039 38.154 0.319039ZM38.154 1.11004C38.63 1.11004 39.0617 1.22671 39.449 1.46004C39.841 1.68871 40.1514 1.99904 40.38 2.39104C40.6134 2.77837 40.73 3.21004 40.73 3.68604C40.73 4.16204 40.6134 4.59371 40.38 4.98104C40.1514 5.36837 39.841 5.67871 39.449 5.91204C39.0617 6.14071 38.63 6.25504 38.154 6.25504C37.678 6.25504 37.2464 6.14071 36.859 5.91204C36.4717 5.67871 36.1614 5.36837 35.928 4.98104C35.6994 4.59371 35.585 4.16204 35.585 3.68604C35.585 3.21004 35.6994 2.77837 35.928 2.39104C36.1614 1.99904 36.4717 1.68871 36.859 1.46004C37.2464 1.22671 37.678 1.11004 38.154 1.11004ZM43.4967 8.78904H44.5957V10.609H45.4007V8.78904H48.7257V8.05404H45.4007V6.64704H48.3267C48.4153 6.64704 48.5157 6.64471 48.6277 6.64004C48.7397 6.63071 48.8633 6.61437 48.9987 6.59104C49.778 6.46037 50.3753 6.12204 50.7907 5.57604C51.2107 5.02537 51.4207 4.36737 51.4207 3.60204C51.4207 2.81804 51.206 2.15071 50.7767 1.60004C50.352 1.04937 49.7593 0.711039 48.9987 0.585039C48.8633 0.561706 48.7397 0.547706 48.6277 0.543039C48.5157 0.533706 48.4153 0.529039 48.3267 0.529039H44.5957V5.89104H43.4967V6.64704H44.5957V8.05404H43.4967V8.78904ZM48.3127 1.31304C48.392 1.31304 48.4877 1.31771 48.5997 1.32704C48.7117 1.33637 48.8213 1.35271 48.9287 1.37604C49.4793 1.48337 49.89 1.75171 50.1607 2.18104C50.436 2.61037 50.5737 3.08637 50.5737 3.60904C50.5737 4.14104 50.4337 4.61704 50.1537 5.03704C49.8783 5.45704 49.47 5.72071 48.9287 5.82804C48.8213 5.85137 48.7117 5.86771 48.5997 5.87704C48.4877 5.88637 48.392 5.89104 48.3127 5.89104H45.4007V1.31304H48.3127Z" fill="#1E4D54"/>
</svg>
