<svg width="52" height="11" viewBox="0 0 52 11" fill="none" xmlns="http://www.w3.org/2000/svg">
<path d="M3.91507 10.819C4.66173 10.819 5.2964 10.651 5.81907 10.315C6.34173 9.97904 6.74073 9.51004 7.01607 8.90804C7.29607 8.30604 7.43607 7.60837 7.43607 6.81504C7.43607 6.03571 7.2984 5.34737 7.02307 4.75004C6.7524 4.15271 6.3534 3.68604 5.82607 3.35004C5.3034 3.00937 4.6664 2.83904 3.91507 2.83904C3.1824 2.83904 2.5524 3.00704 2.02507 3.34304C1.49773 3.67437 1.09407 4.13871 0.814066 4.73604C0.534066 5.32871 0.394066 6.02171 0.394066 6.81504C0.394066 7.59904 0.531733 8.29204 0.807066 8.89404C1.0824 9.49604 1.4814 9.96737 2.00407 10.308C2.5314 10.6487 3.1684 10.819 3.91507 10.819ZM3.91507 10.035C3.0424 10.035 2.37973 9.74104 1.92707 9.15304C1.47907 8.56504 1.25507 7.78571 1.25507 6.81504C1.25507 6.18971 1.35073 5.63671 1.54207 5.15604C1.7334 4.67537 2.02507 4.29971 2.41707 4.02904C2.81373 3.75837 3.31307 3.62304 3.91507 3.62304C4.80173 3.62304 5.46673 3.91237 5.91007 4.49104C6.3534 5.06971 6.57507 5.84437 6.57507 6.81504C6.57507 7.77171 6.3534 8.54871 5.91007 9.14604C5.4714 9.73871 4.8064 10.035 3.91507 10.035ZM10.8918 10.609H11.6968V3.81904H14.4338V3.04904H8.15477V3.81904H10.8918V10.609ZM18.2802 10.609H24.7412V9.81804H19.5052L23.4182 6.26904C23.8802 5.85371 24.2162 5.43837 24.4262 5.02304C24.6362 4.60304 24.7412 4.09204 24.7412 3.49004C24.7412 2.91137 24.6012 2.38171 24.3212 1.90104C24.0412 1.42037 23.6608 1.03771 23.1802 0.753039C22.7042 0.463706 22.1652 0.319039 21.5632 0.319039C20.9658 0.319039 20.4245 0.459039 19.9392 0.739039C19.4585 1.01904 19.0758 1.39937 18.7912 1.88004C18.5065 2.35604 18.3642 2.89037 18.3642 3.48304H19.1762C19.1762 3.05837 19.2788 2.66637 19.4842 2.30704C19.6942 1.94771 19.9788 1.65837 20.3382 1.43904C20.6975 1.21971 21.1035 1.11004 21.5562 1.11004C21.9995 1.11004 22.3985 1.21737 22.7532 1.43204C23.1125 1.64204 23.3972 1.92671 23.6072 2.28604C23.8172 2.64537 23.9222 3.04437 23.9222 3.48304C23.9222 3.87037 23.8592 4.23437 23.7332 4.57504C23.6072 4.91104 23.3388 5.26337 22.9282 5.63204L18.2942 9.83904L18.2802 10.609ZM29.7605 0.319039C29.1398 0.319039 28.5728 0.470706 28.0595 0.774039C27.5508 1.07737 27.1425 1.48337 26.8345 1.99204C26.5312 2.50071 26.3795 3.06537 26.3795 3.68604C26.3795 4.30671 26.5288 4.86904 26.8275 5.37304C27.1262 5.87704 27.5252 6.28071 28.0245 6.58404C28.5285 6.88271 29.0908 7.03204 29.7115 7.03204C30.2482 7.03204 30.7428 6.91071 31.1955 6.66804C31.6482 6.42071 32.0285 6.09404 32.3365 5.68804V7.42404C32.3365 7.88604 32.2222 8.31537 31.9935 8.71204C31.7695 9.10404 31.4592 9.42137 31.0625 9.66404C30.6705 9.90671 30.2248 10.028 29.7255 10.028C29.2588 10.028 28.8318 9.91604 28.4445 9.69204C28.0572 9.46337 27.7492 9.16237 27.5205 8.78904L26.8765 9.25804C27.1752 9.73404 27.5742 10.1144 28.0735 10.399C28.5775 10.679 29.1282 10.819 29.7255 10.819C30.3695 10.819 30.9482 10.6674 31.4615 10.364C31.9795 10.056 32.3902 9.64304 32.6935 9.12504C32.9968 8.60704 33.1485 8.02371 33.1485 7.37504V3.73504C33.1485 3.10037 32.9968 2.52637 32.6935 2.01304C32.3902 1.49504 31.9818 1.08437 31.4685 0.781039C30.9552 0.473039 30.3858 0.319039 29.7605 0.319039ZM29.7605 1.11004C30.2365 1.11004 30.6682 1.22671 31.0555 1.46004C31.4475 1.68871 31.7578 1.99904 31.9865 2.39104C32.2198 2.77837 32.3365 3.21004 32.3365 3.68604C32.3365 4.16204 32.2198 4.59371 31.9865 4.98104C31.7578 5.36837 31.4475 5.67871 31.0555 5.91204C30.6682 6.14071 30.2365 6.25504 29.7605 6.25504C29.2845 6.25504 28.8528 6.14071 28.4655 5.91204C28.0782 5.67871 27.7678 5.36837 27.5345 4.98104C27.3058 4.59371 27.1915 4.16204 27.1915 3.68604C27.1915 3.21004 27.3058 2.77837 27.5345 2.39104C27.7678 1.99904 28.0782 1.68871 28.4655 1.46004C28.8528 1.22671 29.2845 1.11004 29.7605 1.11004ZM38.4421 0.319039C37.8215 0.319039 37.2545 0.470706 36.7411 0.774039C36.2325 1.07737 35.8241 1.48337 35.5161 1.99204C35.2128 2.50071 35.0611 3.06537 35.0611 3.68604C35.0611 4.30671 35.2105 4.86904 35.5091 5.37304C35.8078 5.87704 36.2068 6.28071 36.7061 6.58404C37.2101 6.88271 37.7725 7.03204 38.3931 7.03204C38.9298 7.03204 39.4245 6.91071 39.8771 6.66804C40.3298 6.42071 40.7101 6.09404 41.0181 5.68804V7.42404C41.0181 7.88604 40.9038 8.31537 40.6751 8.71204C40.4511 9.10404 40.1408 9.42137 39.7441 9.66404C39.3521 9.90671 38.9065 10.028 38.4071 10.028C37.9405 10.028 37.5135 9.91604 37.1261 9.69204C36.7388 9.46337 36.4308 9.16237 36.2021 8.78904L35.5581 9.25804C35.8568 9.73404 36.2558 10.1144 36.7551 10.399C37.2591 10.679 37.8098 10.819 38.4071 10.819C39.0511 10.819 39.6298 10.6674 40.1431 10.364C40.6611 10.056 41.0718 9.64304 41.3751 9.12504C41.6785 8.60704 41.8301 8.02371 41.8301 7.37504V3.73504C41.8301 3.10037 41.6785 2.52637 41.3751 2.01304C41.0718 1.49504 40.6635 1.08437 40.1501 0.781039C39.6368 0.473039 39.0675 0.319039 38.4421 0.319039ZM38.4421 1.11004C38.9181 1.11004 39.3498 1.22671 39.7371 1.46004C40.1291 1.68871 40.4395 1.99904 40.6681 2.39104C40.9015 2.77837 41.0181 3.21004 41.0181 3.68604C41.0181 4.16204 40.9015 4.59371 40.6681 4.98104C40.4395 5.36837 40.1291 5.67871 39.7371 5.91204C39.3498 6.14071 38.9181 6.25504 38.4421 6.25504C37.9661 6.25504 37.5345 6.14071 37.1471 5.91204C36.7598 5.67871 36.4495 5.36837 36.2161 4.98104C35.9875 4.59371 35.8731 4.16204 35.8731 3.68604C35.8731 3.21004 35.9875 2.77837 36.2161 2.39104C36.4495 1.99904 36.7598 1.68871 37.1471 1.46004C37.5345 1.22671 37.9661 1.11004 38.4421 1.11004ZM43.7848 8.78904H44.8838V10.609H45.6888V8.78904H49.0138V8.05404H45.6888V6.64704H48.6148C48.7034 6.64704 48.8038 6.64471 48.9158 6.64004C49.0278 6.63071 49.1514 6.61437 49.2868 6.59104C50.0661 6.46037 50.6634 6.12204 51.0788 5.57604C51.4988 5.02537 51.7088 4.36737 51.7088 3.60204C51.7088 2.81804 51.4941 2.15071 51.0648 1.60004C50.6401 1.04937 50.0474 0.711039 49.2868 0.585039C49.1514 0.561706 49.0278 0.547706 48.9158 0.543039C48.8038 0.533706 48.7034 0.529039 48.6148 0.529039H44.8838V5.89104H43.7848V6.64704H44.8838V8.05404H43.7848V8.78904ZM48.6008 1.31304C48.6801 1.31304 48.7758 1.31771 48.8878 1.32704C48.9998 1.33637 49.1094 1.35271 49.2168 1.37604C49.7674 1.48337 50.1781 1.75171 50.4488 2.18104C50.7241 2.61037 50.8618 3.08637 50.8618 3.60904C50.8618 4.14104 50.7218 4.61704 50.4418 5.03704C50.1664 5.45704 49.7581 5.72071 49.2168 5.82804C49.1094 5.85137 48.9998 5.86771 48.8878 5.87704C48.7758 5.88637 48.6801 5.89104 48.6008 5.89104H45.6888V1.31304H48.6008Z" fill="white"/>
</svg>
