<svg width="49" height="12" viewBox="0 0 49 12" fill="none" xmlns="http://www.w3.org/2000/svg">
<path d="M3.55911 11.21C4.30578 11.21 4.94044 11.042 5.46311 10.706C5.98578 10.37 6.38478 9.901 6.66011 9.299C6.94011 8.697 7.08011 7.99933 7.08011 7.206C7.08011 6.42667 6.94244 5.73833 6.66711 5.141C6.39644 4.54367 5.99744 4.077 5.47011 3.741C4.94744 3.40033 4.31044 3.23 3.55911 3.23C2.82644 3.23 2.19644 3.398 1.66911 3.734C1.14178 4.06533 0.738109 4.52967 0.458109 5.127C0.178109 5.71967 0.0381094 6.41267 0.0381094 7.206C0.0381094 7.99 0.175776 8.683 0.451109 9.285C0.726443 9.887 1.12544 10.3583 1.64811 10.699C2.17544 11.0397 2.81244 11.21 3.55911 11.21ZM3.55911 10.426C2.68644 10.426 2.02378 10.132 1.57111 9.544C1.12311 8.956 0.899109 8.17667 0.899109 7.206C0.899109 6.58067 0.994776 6.02767 1.18611 5.547C1.37744 5.06633 1.66911 4.69067 2.06111 4.42C2.45778 4.14933 2.95711 4.014 3.55911 4.014C4.44578 4.014 5.11078 4.30333 5.55411 4.882C5.99744 5.46067 6.21911 6.23533 6.21911 7.206C6.21911 8.16267 5.99744 8.93967 5.55411 9.537C5.11544 10.1297 4.45044 10.426 3.55911 10.426ZM10.5358 11H11.3408V4.21H14.0778V3.44H7.79881V4.21H10.5358V11ZM19.9682 11H20.7802V0.92H19.9682L18.0642 2.054V2.978L19.9682 1.837V11ZM26.7795 0.71C26.1589 0.71 25.5919 0.861666 25.0785 1.165C24.5699 1.46833 24.1615 1.87433 23.8535 2.383C23.5502 2.89167 23.3985 3.45633 23.3985 4.077C23.3985 4.69767 23.5479 5.26 23.8465 5.764C24.1452 6.268 24.5442 6.67167 25.0435 6.975C25.5475 7.27367 26.1099 7.423 26.7305 7.423C27.2672 7.423 27.7619 7.30167 28.2145 7.059C28.6672 6.81167 29.0475 6.485 29.3555 6.079V7.815C29.3555 8.277 29.2412 8.70633 29.0125 9.103C28.7885 9.495 28.4782 9.81233 28.0815 10.055C27.6895 10.2977 27.2439 10.419 26.7445 10.419C26.2779 10.419 25.8509 10.307 25.4635 10.083C25.0762 9.85433 24.7682 9.55333 24.5395 9.18L23.8955 9.649C24.1942 10.125 24.5932 10.5053 25.0925 10.79C25.5965 11.07 26.1472 11.21 26.7445 11.21C27.3885 11.21 27.9672 11.0583 28.4805 10.755C28.9985 10.447 29.4092 10.034 29.7125 9.516C30.0159 8.998 30.1675 8.41467 30.1675 7.766V4.126C30.1675 3.49133 30.0159 2.91733 29.7125 2.404C29.4092 1.886 29.0009 1.47533 28.4875 1.172C27.9742 0.864 27.4049 0.71 26.7795 0.71ZM26.7795 1.501C27.2555 1.501 27.6872 1.61767 28.0745 1.851C28.4665 2.07967 28.7769 2.39 29.0055 2.782C29.2389 3.16933 29.3555 3.601 29.3555 4.077C29.3555 4.553 29.2389 4.98467 29.0055 5.372C28.7769 5.75933 28.4665 6.06967 28.0745 6.303C27.6872 6.53167 27.2555 6.646 26.7795 6.646C26.3035 6.646 25.8719 6.53167 25.4845 6.303C25.0972 6.06967 24.7869 5.75933 24.5535 5.372C24.3249 4.98467 24.2105 4.553 24.2105 4.077C24.2105 3.601 24.3249 3.16933 24.5535 2.782C24.7869 2.39 25.0972 2.07967 25.4845 1.851C25.8719 1.61767 26.3035 1.501 26.7795 1.501ZM35.4612 0.71C34.8405 0.71 34.2735 0.861666 33.7602 1.165C33.2515 1.46833 32.8432 1.87433 32.5352 2.383C32.2318 2.89167 32.0802 3.45633 32.0802 4.077C32.0802 4.69767 32.2295 5.26 32.5282 5.764C32.8268 6.268 33.2258 6.67167 33.7252 6.975C34.2292 7.27367 34.7915 7.423 35.4122 7.423C35.9488 7.423 36.4435 7.30167 36.8962 7.059C37.3488 6.81167 37.7292 6.485 38.0372 6.079V7.815C38.0372 8.277 37.9228 8.70633 37.6942 9.103C37.4702 9.495 37.1598 9.81233 36.7632 10.055C36.3712 10.2977 35.9255 10.419 35.4262 10.419C34.9595 10.419 34.5325 10.307 34.1452 10.083C33.7578 9.85433 33.4498 9.55333 33.2212 9.18L32.5772 9.649C32.8758 10.125 33.2748 10.5053 33.7742 10.79C34.2782 11.07 34.8288 11.21 35.4262 11.21C36.0702 11.21 36.6488 11.0583 37.1622 10.755C37.6802 10.447 38.0908 10.034 38.3942 9.516C38.6975 8.998 38.8492 8.41467 38.8492 7.766V4.126C38.8492 3.49133 38.6975 2.91733 38.3942 2.404C38.0908 1.886 37.6825 1.47533 37.1692 1.172C36.6558 0.864 36.0865 0.71 35.4612 0.71ZM35.4612 1.501C35.9372 1.501 36.3688 1.61767 36.7562 1.851C37.1482 2.07967 37.4585 2.39 37.6872 2.782C37.9205 3.16933 38.0372 3.601 38.0372 4.077C38.0372 4.553 37.9205 4.98467 37.6872 5.372C37.4585 5.75933 37.1482 6.06967 36.7562 6.303C36.3688 6.53167 35.9372 6.646 35.4612 6.646C34.9852 6.646 34.5535 6.53167 34.1662 6.303C33.7788 6.06967 33.4685 5.75933 33.2352 5.372C33.0065 4.98467 32.8922 4.553 32.8922 4.077C32.8922 3.601 33.0065 3.16933 33.2352 2.782C33.4685 2.39 33.7788 2.07967 34.1662 1.851C34.5535 1.61767 34.9852 1.501 35.4612 1.501ZM40.8038 9.18H41.9028V11H42.7078V9.18H46.0328V8.445H42.7078V7.038H45.6338C45.7225 7.038 45.8228 7.03567 45.9348 7.031C46.0468 7.02167 46.1705 7.00533 46.3058 6.982C47.0851 6.85133 47.6825 6.513 48.0978 5.967C48.5178 5.41633 48.7278 4.75833 48.7278 3.993C48.7278 3.209 48.5131 2.54167 48.0838 1.991C47.6591 1.44033 47.0665 1.102 46.3058 0.976C46.1705 0.952666 46.0468 0.938666 45.9348 0.933999C45.8228 0.924666 45.7225 0.92 45.6338 0.92H41.9028V6.282H40.8038V7.038H41.9028V8.445H40.8038V9.18ZM45.6198 1.704C45.6991 1.704 45.7948 1.70867 45.9068 1.718C46.0188 1.72733 46.1285 1.74367 46.2358 1.767C46.7865 1.87433 47.1971 2.14267 47.4678 2.572C47.7431 3.00133 47.8808 3.47733 47.8808 4C47.8808 4.532 47.7408 5.008 47.4608 5.428C47.1855 5.848 46.7771 6.11167 46.2358 6.219C46.1285 6.24233 46.0188 6.25867 45.9068 6.268C45.7948 6.27733 45.6991 6.282 45.6198 6.282H42.7078V1.704H45.6198Z" fill="#534407"/>
</svg>
